<?xml version="1.0" encoding="UTF-8"?>
<svg width="32px" height="32px" viewBox="0 0 32 32" xmlns="http://www.w3.org/2000/svg">
  <g transform="translate(16, 16)">
    <!-- Background circle -->
    <circle cx="0" cy="0" r="16" fill="#f8f5f0" />
    
    <!-- Feather pen -->
    <g transform="scale(0.22) rotate(45)">
      <!-- Feather Quill -->
      <path d="M-60,-90 C-45,-75 -30,-60 -20,-40 C-15,-30 -10,-15 -10,0 C-10,15 -15,30 -20,45 L0,65 L20,45 C15,30 10,15 10,0 C10,-15 15,-30 20,-40 C30,-60 45,-75 60,-90 C40,-80 20,-70 0,-60 C-20,-70 -40,-80 -60,-90 Z" 
            fill="none" stroke="#3D2E18" stroke-width="8"/>
      
      <!-- Pen tip -->
      <path d="M-10,45 L-15,60 L-5,70 L5,70 L15,60 L10,45 L0,65 Z" 
            fill="#C5A05A" stroke="#3D2E18" stroke-width="4"/>
      
      <!-- Ink stain -->
      <path d="M-15,60 L-25,80 C-25,90 -15,95 0,95 C15,95 25,90 25,80 L15,60" 
            fill="#3D2E18" stroke="none"/>
    </g>
  </g>
</svg> 