<svg width="200" height="200" viewBox="0 0 200 200" xmlns="http://www.w3.org/2000/svg">
  <!-- Quill feather -->
  <path d="M150,30 C145,35 140,40 135,50 C130,60 125,70 120,85 C115,100 110,110 105,125 C100,140 90,150 80,160 C70,170 60,175 50,180 L40,170 C50,165 60,160 70,150 C80,140 90,130 95,115 C100,100 105,90 110,75 C115,60 120,50 125,40 C130,30 135,25 140,20 Z" fill="#d4b59e" />
  
  <!-- Quill shaft -->
  <path d="M40,170 L30,180 C25,175 20,170 15,165 C10,160 5,155 5,150 C5,145 10,140 15,140 C20,140 25,145 30,150 C35,155 40,165 40,170 Z" fill="#8b5a2b" />
  
  <!-- Ink stains -->
  <circle cx="50" cy="160" r="8" fill="#3a2618" opacity="0.5" />
  <circle cx="40" cy="150" r="5" fill="#3a2618" opacity="0.4" />
  <circle cx="60" cy="165" r="6" fill="#3a2618" opacity="0.3" />
  
  <!-- Feather details -->
  <path d="M145,35 L125,50 M140,40 L120,60 M135,50 L115,70 M130,60 L110,80 M125,70 L105,90 M120,80 L100,100 M115,90 L95,110 M110,100 L90,120 M105,110 L85,130 M100,120 L80,140 M95,130 L75,145 M90,140 L70,155" stroke="#8b5a2b" stroke-width="1" opacity="0.6" />
</svg> 